<svg viewBox="0 0 208 276" preserveAspectRatio="none" fill="none" xmlns="http://www.w3.org/2000/svg">
<path d="M0 0L23 3.5L50.5 0L62.5 8.5L74 3.5L94 0L118 8.5L131.5 0L143.5 3.5L161.5 0H173L183.5 8.5L196.5 0H208L202.5 17L208 48L202.5 58L208 69L202.5 90L208 120.5L202.5 151.5L208 162V173L202.5 187.5L199.5 209L205.5 228.5L199.5 246L208 260.5V276L194.5 271.5L170 276L152 266.5L126.5 276H114L106 266.5L90.5 276L57.5 266.5L36 276L20 273.5L0 276L5 253.5L3 226L0 209L5 190.5L0 178.5L3 151.5V126L0 112.5V95.5L3 69L0 48L5 33.5L1 13L0 0Z" fill="#dfd3d6
"/>
</svg>
